<svg xmlns="http://www.w3.org/2000/svg" xmlns:xlink="http://www.w3.org/1999/xlink" version="1.1" width="1000" height="1000" viewBox="0 0 1000 1000" xml:space="preserve">
<desc>Created with Fabric.js 3.5.0</desc>
<defs>
</defs>
<rect x="0" y="0" width="100%" height="100%" fill="#ffffff"/>
<g transform="matrix(-0.1334 0 0 -0.1321 488.6851 428.0901)" id="843328">
<path style="stroke: none; stroke-width: 1; stroke-dasharray: none; stroke-linecap: butt; stroke-dashoffset: 0; stroke-linejoin: miter; stroke-miterlimit: 4; is-custom-font: none; font-file-url: none; fill: rgb(35,31,32); fill-rule: nonzero; opacity: 1;" vector-effect="non-scaling-stroke" transform=" translate(-2779.1354, -1582.1992)" d="m 11.7323 24.3754 l -3.48 10.1 l -10.27 -3.02 c -59.72 -17.55 -493.179 -39.32 -634.007 -27.89 l -0.918 -11.14 l -0.899 -11.17 c 129.699 -10.5 536.014 6.97 631.134 26.09 c 16.89 -72.05 27.96 -340.68 26.05 -643.62 c -2.47 -388.07 -23.81 -583.8 -42.63 -601.45 c -36.98 -34.67 -406.202 -32.09 -678.468 -21.22 c -0.199 18.47 -0.527 38.39 -0.965 59.66 c 85.825 -2.82 195.989 -5.58 299.922 -5.58 c 154.399 0 294.981 6.08 321.061 26.94 c 63.79 51.08 65.95 990.3 23.5 1098.23 l -1.8 4.54 l -4.76 -1.15 c -53.79 -13.38 -408.149 -28.33 -583.095 -23.76 c -2.582 0.06 -5.214 0.13 -7.714 0.19 l -1.121 -11.08 c 162.554 -4.66 516.67 8.24 589.63 22.67 c 17.42 -56.03 28.03 -292.64 24.84 -559.98 c -3.48 -292.11 -22.16 -501.44 -46.48 -520.92 c -37.71 -30.17 -362.959 -27.4 -614.209 -19.02 c -1.836 84.73 -5.305 189.75 -9.656 309.34 c -1.723 48.73 -3.563 100.13 -5.297 153.31 c -3.993 120.52 -7.578 251.3 -8.266 388.5 c -0.777 197.63 3.926 408.45 28.102 616.65 c 12.203 104.01 29.449 207.31 54.882 306.55 c 20.141 77.55 45.258 152.75 77.985 222.16 c 9.051 19.22 18.601 38.09 28.898 56.34 l 9.031 16.38 c 3.106 5.9 6.555 11.7 9.266 17.67 l 8.199 17.8 c 2.559 5.96 4.809 11.96 7.192 17.91 c 9.222 23.87 16.679 47.79 22.843 71.57 c 12.504 47.53 20.965 94.39 27.454 140.07 c 12.789 91.37 17.918 178.01 20.574 257.88 c 4.746 159.79 -1.785 292.61 -8.164 385.32 c -3.278 46.36 -6.614 82.7 -9.129 107.46 c -2.637 24.74 -4.043 37.93 -4.043 37.93 c 0 0 0.762 -13.24 2.183 -38.08 c 1.313 -24.81 2.868 -61.27 3.872 -107.64 c 1.847 -92.7 1.855 -225.42 -10.582 -383.56 c -6.5 -78.96 -15.805 -164.41 -32.645 -253.01 c -8.508 -44.24 -18.988 -89.28 -33.023 -133.74 c -6.954 -22.25 -15.059 -44.24 -24.473 -65.51 c -1.309 -2.8 -2.609 -5.62 -3.875 -8.46 c -1.141 -2.48 -2.223 -4.97 -3.414 -7.37 l -7.988 -15.34 c -2.637 -5.17 -5.825 -9.82 -8.692 -14.76 l -9.75 -15.76 c -54.801 -86.77 -95.047 -185.21 -126.851 -286.7 c -31.547 -101.78 -54.567 -207.31 -72.403 -313.33 c -35.371 -212.19 -50.718 -426.14 -59.898 -626.09 c -8.942 -200.07 -11.172 -386.47 -13.496 -545.65 c -2.11 -159.21 -4.516 -291.16 -8.188 -382.78 c 0 -77.36 37.887 -115.07 76.809 -133.47 c 0.246 -0.11 0.484 -0.25 0.73 -0.36 c 40.844 -19.042 82.563 -16.96 82.563 -16.96 c 0 0 0.211 13.59 0.625 39.06 c 0.293 22.45 0.383 54.07 0.047 93.52 c 83.578 -3.32 212.523 -7.47 337.039 -7.47 c 167.808 0 327.448 7.54 356.508 34.77 c 41.57 39.01 48.61 444.91 49.71 617.62 c 1.77 279.87 -7.97 596.72 -30 660.81 M 621.68 4480.43 c 59.687 -26.3 86.742 0 86.742 0 c 0 0 -49.43 46.45 -22.387 77.23 c -37.312 9.33 -69.773 7.45 -69.773 7.45 c -34.508 -15.84 -54.27 -58.37 5.418 -84.68 m -44.879 -1454.81 l -6.449 -64.68 c 35.218 -87.5 119.312 -149.3 217.343 -149.3 c 27.524 0 53.832 5.11 78.395 14.05 c -10.988 -1.7 -22.16 -2.86 -33.625 -2.86 c -26.652 0 -52.113 5.03 -75.828 13.79 c -94.078 14.24 -168.231 91.73 -179.836 189 m 210.894 267.3 c -81.019 0 -152.593 -42.19 -194.859 -106.22 l -6.441 -64.61 c 25.23 76.42 90.593 133.8 170.242 145.84 c 23.715 8.77 49.176 13.79 75.828 13.79 c 11.465 0 22.637 -1.16 33.625 -2.86 c -24.563 8.93 -50.871 14.06 -78.395 14.06 M 1295.35 958.879 c 3.27 -88.18 -158.97 -98.899 -201.91 -106.859 c -171.424 -31.7 -542.639 -14.95 -680.686 0 c -43.43 4.699 -205.191 18.679 -201.914 106.859 c 3.281 88.201 7.914 657.971 0.449 1284.751 c -7.465 626.77 78.344 671.54 231.313 999.85 c 150.527 323.08 140.253 693.25 136.277 1202.71 c -29.621 6.19 -50.106 32.45 -50.106 63.9 v 3.74 c 0 36.05 25.665 64.57 61.735 64.57 H 885.25 c 36.066 0 68.836 -28.52 68.836 -64.57 v -3.74 c 0 -17.76 -8.895 -33.84 -20.387 -45.6 c -3.941 -514.19 -20.625 -896.07 130.781 -1221.01 c 152.96 -328.31 238.32 -373.08 230.87 -999.85 c -7.48 -626.78 -3.28 -1196.55 0 -1284.751 M 2145.7 2398.46 c 0 19.45 -119.22 46.62 -313.38 46.62 c -194.17 0 -313.39 -27.17 -313.39 -46.62 c 0 -19.48 119.22 -46.63 313.39 -46.63 c 194.16 0 313.38 27.15 313.38 46.63 m 2092.25 -582.42 c 0.19 0.07 0.35 0.11 0.55 0.15 l -5.97 1.86 c 0 0 0.52 1.62 1.52 4.57 l -5.37 -1.01 c 1.95 -3.01 3.48 -5.38 4.52 -7.04 c 1.68 0.53 3.35 1.05 4.75 1.47 m -329.33 124.25 c 0.16 0.02 -0.24 -1.35 0.6 -3.7 c 0.67 -2.31 2.95 -5.26 6.07 -8.56 c 6.52 -6.54 17.23 -14.17 30.63 -22.22 c 26.86 -16.13 64.55 -34.19 102.94 -50.57 c 38.43 -16.38 77.62 -30.98 107.42 -40.86 c 14.91 -4.99 27.43 -8.84 36.31 -11.44 c 1.73 -0.48 3.17 -0.9 4.61 -1.27 c -0.83 -0.32 -1.59 -0.6 -2.44 -0.92 c -30.22 -11.31 -70.25 -26.58 -110.86 -40.26 c -40.62 -13.62 -81.96 -25.73 -113.74 -29.55 c -7.95 -1.07 -15.28 -1.32 -21.82 -1.07 c -6.4 0.41 -12.06 1.41 -16.24 3.47 c -4.17 1.86 -6.82 4.75 -7.87 6.93 c -1.07 2.29 -1.63 3.52 -1.63 3.52 c 0 0 0.54 -1.25 1.43 -3.61 c 0.97 -2.23 3.53 -5.33 7.77 -7.45 c 4.15 -2.41 9.92 -3.67 16.48 -4.47 c 6.51 -0.51 14.05 -0.65 22.12 -0.02 c 32.39 2.28 74.54 12.4 116.02 24.06 c 41.44 11.65 82.41 24.98 113.07 34.77 c 13.63 4.31 25.06 7.87 33.64 10.34 c -0.3 -0.4 -0.54 -0.68 -0.86 -1.07 c -6.08 -7.69 -14.78 -18.67 -25.26 -31.91 c -21.02 -26.23 -49.4 -60.95 -79.43 -94.2 c -30.02 -33.23 -61.76 -65.17 -88.96 -84.84 c -6.81 -4.87 -13.2 -9.16 -19.25 -12.19 c -6.01 -3.29 -11.59 -5.4 -16.33 -6.48 c -4.7 -1.07 -8.68 -1.36 -11.17 -0.79 c -2.62 0.51 -4 0.72 -4 0.72 c 0 0 1.35 -0.3 3.94 -0.92 c 2.53 -0.72 6.6 -0.6 11.33 0.29 c 4.95 0.86 10.7 2.73 16.86 5.73 c 6.37 2.82 13.01 6.78 20.14 11.44 c 28.43 18.57 61.9 49.2 93.65 81.16 c 31.78 31.96 62.01 65.43 84.37 90.79 c 11.07 12.74 20.32 23.28 26.8 30.64 c 3.16 3.63 5.54 6.39 7.24 8.28 c 0.74 0.95 1.99 2.1 1.99 2.1 l -1.99 2.41 c 1 0.05 2.01 0.08 3.26 0.13 l 0.87 -1.29 c 0 0 0.81 0.57 1.95 1.4 c 26.3 0.97 92.42 2.82 158.75 0.13 c 42.65 -1.77 85.34 -5.27 116.53 -12.63 c 15.5 -3.65 28.16 -8.38 35.68 -13.84 c 3.87 -2.56 6.23 -5.64 7.41 -7.69 c 1.03 -2.28 1.57 -3.5 1.57 -3.5 c 0 0 -0.5 1.22 -1.41 3.56 c -1.06 2.18 -3.33 5.43 -7.13 8.18 c -7.38 6.01 -19.96 11.41 -35.46 15.85 c -31.09 9.04 -73.87 14.73 -116.62 18.66 c -51.7 4.68 -103.47 6.6 -136.44 7.39 c 33.63 23.73 96.71 68.19 159.89 112.71 c 46.32 32.25 92.91 64.21 128.19 87.6 c 17.68 11.7 32.51 21.27 43.17 27.54 c 5.31 3.15 9.43 5.71 12.53 6.93 c 2.97 1.4 4.57 2.17 4.57 2.17 c 0 0 -1.64 -0.69 -4.66 -1.97 c -3.12 -1.16 -7.39 -3.52 -12.81 -6.47 c -10.89 -5.86 -26.1 -14.98 -44.25 -25.93 c -36.17 -22.06 -83.98 -52.26 -131.55 -82.74 c -81.07 -52.66 -161.96 -105.19 -183.73 -119.34 c -1.01 0.03 -2.06 0.03 -2.84 0.05 c 5.03 17 35.87 120.95 70.64 223.76 c 19.05 56.18 39.09 112.03 56.45 152.95 c 8.66 20.51 16.66 37.26 23.37 48.32 c 3.3 5.57 6.4 9.64 8.83 12.17 c 2.47 2.38 4.14 3.35 4.14 3.35 c 0 0 -1.69 -0.9 -4.25 -3.21 c -2.51 -2.48 -5.83 -6.39 -9.34 -11.9 c -7.17 -10.86 -15.8 -27.43 -25.22 -47.61 c -18.87 -40.42 -41.01 -95.64 -62.04 -151.21 c -32.57 -85.89 -62.41 -172.78 -74.28 -207.84 c -0.9 2.81 -1.93 5.88 -3.19 9.4 c -4.35 11.82 -10.91 28.31 -18.91 47.98 c -15.94 39.35 -37.42 91.61 -56.53 144.83 c -19.19 52.99 -36.07 107.11 -42.26 148.99 c -3.23 20.88 -3.56 38.67 -1.18 50.78 c 1.34 5.97 2.64 10.74 4.33 13.51 c 1.65 2.96 2.49 4.51 2.49 4.51 c 0 0 -0.89 -1.51 -2.57 -4.39 c -1.91 -2.74 -3.48 -7.52 -4.96 -13.47 c -2.9 -12.16 -3.2 -30.11 -0.81 -51.31 c 4.69 -42.38 19.6 -97.43 36.76 -151.44 c 17.23 -54.09 36.77 -107.32 51.22 -147.17 c 7.17 -19.95 13.09 -36.59 16.81 -48.18 c 0.53 -1.57 0.97 -3.01 1.38 -4.37 c -9.14 13.55 -22.06 32.72 -37.58 55.74 c -31.39 46.39 -73.13 108.21 -113.55 170.95 c -40.39 62.71 -79.48 126.37 -105.16 176.04 c -12.83 24.79 -22.38 46.15 -26.71 61.91 c -2.12 7.82 -2.91 14.27 -2.36 18.62 c 0.58 4.38 2.45 6.14 2.31 6.19 c 0.14 -0.05 -1.79 -1.75 -2.54 -6.17 c -0.67 -4.33 -0.08 -10.93 1.87 -18.84 c 3.9 -15.96 12.85 -37.64 25.01 -62.94 c 24.32 -50.53 61.66 -115.35 100.29 -179.36 c 38.69 -63.99 78.67 -127.11 108.71 -174.38 c 14.99 -23.65 27.48 -43.35 36.2 -57.1 c 4.24 -6.75 7.45 -12.04 9.66 -15.71 c -2.74 -0.99 -5.62 -2.06 -8.63 -3.17 l 2.54 10.01 c 0.02 0 -20.23 4.16 -50.09 12.54 c -29.9 8.23 -69.51 20.69 -108.49 34.98 c -38.93 14.32 -77.3 30.3 -104.8 44.95 c -13.69 7.28 -24.72 14.29 -31.41 20.35 c -3.26 3.1 -5.64 5.91 -6.41 8.17 c -0.91 2.21 -0.63 3.61 -0.79 3.59 m -63.89 -182.73 c -3.37 48.59 -165.53 75.53 -152.5 141.09 c 76.79 17.73 135.73 47.78 134.74 70.84 c -0.92 23.09 -64.64 64.25 -64.64 64.25 c 0 0 140.63 365.18 105.06 400.31 c -5.9 14.91 13.06 20.15 20.69 10.18 c 13.55 -48.15 390.57 -108.53 390.57 -108.53 c 0 0 5.14 -75.75 24.86 -87.73 c 19.73 -12 74.62 24.99 127.27 83.61 c 63.69 -20.37 8.72 -175.27 49.57 -201.76 c 40.88 -26.5 94.38 71.98 193.19 71.02 c 104.49 -105.85 -54.61 -344.67 -56.03 -371.62 c -1.45 -26.98 54.42 -74.66 90.89 -87.21 c 4.16 -37 -162.97 -208.19 -293.15 -162.46 c 10.38 87.62 -84.09 228.51 -158.92 209.97 l -5.35 -0.74 c -52.46 -56.49 25.01 -207.34 106.72 -240.7 c -23 -136.07 -253.74 -199.35 -284.1 -177.81 c 6.67 37.96 -7.96 109.86 -32.22 121.71 c -24.35 11.87 -310.31 -11.65 -352.3 131.01 c 47.02 86.85 159.05 86 155.65 134.57 M 6180.44 781.121 c -0.22 -0.141 0.05 4.43 -4.66 10.77 c -4.63 6.3 -13.63 13.57 -26.11 20.898 c -25.04 14.77 -63.6 30.18 -110.6 46.031 c -94.08 31.59 -222.29 64.321 -351 94.399 c -128.74 29.953 -258.13 57.201 -355.1 77.511 c -48.42 10.21 -88.8 18.72 -117.04 24.64 c -13.79 2.97 -24.45 5.39 -31.83 7.14 c 2.1 4.69 4.35 9.67 6.64 14.88 l 9.58 -15.57 c 0 -0.02 30.26 20.42 77.67 47.98 c 47.39 27.67 112.06 62.46 178.25 94.2 c 66.14 31.7 133.83 60.52 186.29 77.31 c 26.14 8.33 48.59 13.67 64.57 14.63 c 7.96 0.3 14.36 -0.09 18.3 -1.92 c 3.96 -1.56 5.38 -3.7 5.51 -3.46 c -0.13 -0.22 -1.45 1.97 -5.38 3.76 c -3.91 2.08 -10.4 2.84 -18.45 2.93 c -16.24 -0.15 -39.15 -4.37 -65.91 -11.39 c -53.62 -14.14 -123.03 -39.61 -191.19 -68.01 c -68.09 -28.43 -134.96 -60.04 -184.28 -85.58 c -24.74 -12.75 -45.01 -23.8 -59.3 -31.92 c -2.72 -1.55 -5.12 -2.93 -7.35 -4.21 c 0.64 1.44 1.2 2.75 1.86 4.19 c 22.96 52.23 53.02 121.88 85.87 190.19 c 32.88 68.22 68.48 135.47 102.92 180.57 c 8.52 11.33 17.26 20.87 25.52 28.87 c 8.51 7.61 16.75 13.56 24.49 16.31 c 7.58 2.99 14.47 2.78 18.54 1.42 c 4.17 -1.49 6.43 -2.32 6.43 -2.32 c 0 0 -2.21 0.94 -6.34 2.65 c -4.02 1.57 -11.08 2.16 -19.06 -0.55 c -8.14 -2.4 -16.82 -8.08 -25.91 -15.41 c -8.77 -7.65 -18.18 -16.94 -27.34 -28 c -37.17 -43.85 -76.32 -109.76 -112.79 -176.62 c -36.39 -66.95 -70.04 -135.31 -95.54 -186.22 c -11.24 -22.45 -20.9 -41.58 -28.42 -55.46 c -0.11 0.83 -0.2 1.58 -0.31 2.46 c -2.21 17.24 -5.38 41.85 -9.16 71.38 c -7.32 59.05 -16.22 137.9 -21.27 216.96 c -5.09 79.03 -6.34 158.63 2.3 217.39 c 2.21 14.65 4.72 28.04 8.35 39.5 c 3.25 11.56 7.43 21.29 11.95 28.61 c 4.38 7.31 8.97 12.7 12.8 15.17 c 3.81 2.69 5.83 4.16 5.83 4.16 c 0 0 -2.1 -1.36 -6.01 -3.88 c -4 -2.31 -8.92 -7.54 -13.73 -14.72 c -4.94 -7.24 -9.64 -16.93 -13.51 -28.47 c -4.24 -11.48 -7.46 -24.87 -10.34 -39.59 c -11.59 -58.96 -14.14 -139.11 -12.83 -218.75 c 1.24 -79.77 6.43 -159.34 10.95 -218.94 c 2.41 -29.74 4.37 -54.51 5.8 -71.87 c 0.6 -8.37 1.08 -14.9 1.43 -19.39 c 0.29 -2.03 0.18 -5.11 0.2 -5.09 l 5.49 -0.44 c -1.14 -1.26 -2.44 -2.71 -3.82 -4.24 l -2.72 0.46 c 0 0 -0.24 -1.51 -0.67 -4.22 C 5088.66 987.621 5009.39 901.52 4924.27 820.961 C 4869.42 769.109 4812.2 719.379 4764.42 689 c -23.78 -15.18 -45.38 -25.352 -61.6 -28.121 c -8 -1.731 -14.7 -0.938 -18.84 0.199 c -4.19 1.442 -6.42 2.223 -6.42 2.223 c 0 0 2.19 -0.891 6.32 -2.571 c 4.08 -1.378 10.92 -2.48 19.12 -1.14 c 16.68 1.969 39.09 11.262 63.88 25.351 c 49.77 28.278 109.8 75.399 167.53 124.7 c 69.69 59.629 136.04 122.828 177.77 163.64 c -11.5 -71.89 -33.03 -206.64 -54.58 -341.472 c -16.36 -98.59 -33.25 -197 -47.27 -270.637 c -7.01 -36.832 -13.15 -67.461 -18.36 -88.641 c -2.54 -10.621 -4.41 -18.992 -6.67 -24.39 c -1.9 -5.551 -2.93 -8.512 -2.93 -8.512 c 0 0 1.17 2.91 3.28 8.351 c 2.43 5.379 4.66 13.692 7.61 24.231 c 6.01 21.039 13.33 51.437 21.73 87.988 c 16.79 73.09 37.47 170.922 57.58 268.86 c 33.25 167.132 66.52 334.191 75.61 379.901 c 1.36 1.34 2.56 2.58 3.59 3.61 c 15.46 -27.5 108.97 -194.769 196.19 -365.629 c 47.72 -93.441 93.74 -187.832 124.19 -260.339 c 15.26 -36.27 26.56 -67.051 32.31 -89.274 c 3.04 -11.066 4.26 -19.976 4.57 -26.109 c -0.07 -6.098 -0.88 -9.348 -0.88 -9.348 c 0 0 0.94 3.188 1.21 9.328 c -0.02 6.172 -0.99 15.219 -3.61 26.449 c -4.96 22.473 -15.23 53.821 -29.16 90.723 c -27.92 73.758 -70.56 169.918 -114.97 265.258 c -68.61 147.262 -141.86 292.312 -171.64 350.631 c 4.68 -2.31 9.92 -4.811 15.92 -7.479 c 20.32 -9.179 49.29 -21.152 84.09 -35.34 c 69.51 -28.421 162.23 -65.73 253.2 -107.07 c 90.83 -41.23 180.22 -86.66 240.97 -130.441 c 30.36 -21.731 53.36 -43.239 65.73 -61.231 c 6 -8.988 10.43 -16.551 11.77 -22.258 c 1.7 -5.613 2.64 -8.613 2.64 -8.613 c 0 0 -0.8 3.043 -2.34 8.684 c -1.11 5.808 -5.27 13.609 -10.97 22.91 c -11.81 18.617 -34.21 41.25 -63.99 64.308 c -59.52 46.45 -147.64 95.5 -237.31 140.36 c -89.67 44.949 -181.24 85.89 -249.55 116.859 c -34.17 15.531 -62.57 28.511 -81.78 38.091 c -2.65 1.31 -5.06 2.53 -7.27 3.69 c 28.42 -5.16 68.71 -12.46 116.98 -21.18 c 97.5 -17.472 227.39 -40.968 356.73 -67.179 c 129.31 -26.301 258.15 -55.301 352.86 -84.07 c 47.25 -14.422 86.1 -28.68 111.37 -42.629 c 12.59 -6.934 21.7 -13.902 26.45 -19.981 c 4.87 -6.14 4.74 -10.711 4.96 -10.57 m 214.14 -86.582 c -77.69 42.262 -619.53 -360.777 -619.53 -360.777 c 0 0 -102.35 86.968 -141.9 76.777 c -39.57 -10.187 -60.42 -125.32 -51.13 -264.418 C 5477.64 90.5703 5349.21 351.469 5265.24 332.352 C 5181.24 313.281 5239.88 123.98 5116.8 0 c -263.1 -1.75 -369.22 494.609 -401.64 529.699 c -32.45 35.11 -161.77 23.141 -222.63 -7.519 c -52 40.441 -62.59 463.441 156.04 571.86 c 98.17 -121.302 393.2 -175.54 462.1 -57.82 l 5.69 7.67 c -6.78 136.24 -293.59 224.29 -436.66 161.94 c -143.98 197.05 60.66 567.44 125.46 579.34 c 39.87 -55.28 149.01 -125.57 194.02 -109.39 c 44.97 16.14 368.19 407.52 600.74 284.57 c 52.01 -166.74 -87.35 -307.63 -21.66 -363.31 c 65.69 -55.7 299.99 116.5 366.98 19.02 c -72.42 -119.09 -107.02 -230.86 -76.61 -258.15 c 30.36 -27.3 161.28 2.63 161.28 2.63 c 0 0 288.89 -628.86 377.36 -627.29 c 26.12 -10.852 9.39 -41.32 -12.69 -38.711 M 5166.96 1026.71 c -0.17 -0.33 -0.3 -0.56 -0.48 -0.9 l 9.75 5.3 c 0 0 1.38 -2.67 3.89 -7.52 l 5.36 8.01 c -6.23 1.23 -11.1 2.24 -14.52 2.95 c -1.44 -2.84 -2.8 -5.52 -4 -7.84 M 3970.27 380.738 c 0 0 -1.25 4.461 -4.18 12.442 c -1.32 4.05 -3.25 8.871 -6.64 13.75 c -3.1 5.05 -6.45 11.199 -11.89 16.332 c -4.79 5.808 -10.71 11.476 -18.04 16.238 c -6.78 5.668 -15.37 9.27 -24.02 13.422 c -9.16 2.758 -18.54 6.648 -28.75 7.238 c -10.03 1.75 -20.41 1.07 -30.71 0.551 c -10.23 -1.652 -20.29 -3.762 -29.8 -7.5 c -9.68 -3.063 -18.2 -8.68 -26.23 -13.77 c -15.83 -11 -27.32 -25.121 -34.38 -38.171 c -4.29 -5.961 -5.88 -13.34 -8.14 -18.688 c -2.47 -5.602 -2.9 -10.523 -3.56 -14.633 c -1.22 -8.148 -1.66 -12.89 -1.66 -12.89 c 0 0 2.82 3.839 7.3 10.793 c 2.14 3.476 4.77 7.89 8.42 11.828 c 3.78 4.039 6.55 8.961 11.65 13.34 c 17.9 18.878 47.3 36.152 79.9 39.48 c 8 0.57 16.19 1.68 24.13 0.461 c 8.07 -0.332 15.71 -1.992 23.37 -3.461 c 7.04 -2.82 14.8 -3.98 21.03 -7.57 c 6.67 -2.84 12.72 -6.11 18.05 -9.809 c 5.74 -3.191 10.08 -7.262 14.41 -10.641 c 4.37 -3.308 7.87 -6.589 10.53 -9.621 c 5.82 -5.8 9.21 -9.121 9.21 -9.121 m -271.11 -96.437 c 2.91 -2.172 5.6 -4.403 8.17 -6.41 c 4.4 -3.301 7.89 -6.582 10.54 -9.621 c 5.84 -5.79 9.21 -9.122 9.21 -9.122 c 0 0 -1.27 4.454 -4.16 12.442 c -1.33 4.051 -3.28 8.879 -6.64 13.75 c -3.15 5.051 -6.46 11.199 -11.9 16.308 c -2.25 2.743 -4.8 5.422 -7.58 8 c -3.13 2.934 -6.59 5.731 -10.47 8.262 c -6.76 5.668 -15.34 9.27 -24.04 13.41 c -9.13 2.77 -18.52 6.66 -28.74 7.258 c -10.02 1.742 -20.41 1.043 -30.68 0.512 c -10.25 -1.61 -20.31 -3.731 -29.8 -7.469 c -9.68 -3.062 -18.25 -8.699 -26.26 -13.769 c -15.81 -10.993 -27.29 -25.114 -34.36 -38.172 c -4.29 -5.969 -5.89 -13.348 -8.17 -18.711 c -2.43 -5.578 -2.88 -10.52 -3.53 -14.598 c -1.21 -8.172 -1.67 -12.922 -1.67 -12.922 c 0 0 2.82 3.852 7.32 10.801 c 2.13 3.48 4.73 7.91 8.39 11.852 c 3.81 4.039 6.56 8.957 11.67 13.328 c 17.91 18.859 47.27 36.16 79.88 39.48 c 8.03 0.57 16.2 1.66 24.11 0.461 c 8.09 -0.32 15.76 -2.012 23.42 -3.461 c 7.04 -2.808 14.77 -3.969 21 -7.578 c 6.65 -2.82 12.71 -6.102 18.06 -9.812 c 2.31 -1.29 4.29 -2.758 6.23 -4.219 m -184.02 206.988 c 8.01 0.57 16.23 1.68 24.14 0.461 c 8.06 -0.332 15.74 -1.988 23.39 -3.461 c 7.04 -2.82 14.79 -3.969 21.02 -7.559 c 6.65 -2.839 12.71 -6.121 18.06 -9.82 c 5.73 -3.18 10.08 -7.23 14.38 -10.64 c 4.4 -3.301 7.89 -6.579 10.56 -9.622 c 5.82 -5.769 9.19 -9.089 9.19 -9.089 c 0 0 -1.25 4.441 -4.16 12.421 c -1.35 4.04 -3.25 8.86 -6.64 13.75 c -3.13 5.051 -6.46 11.188 -11.9 16.329 c -4.78 5.812 -10.71 11.492 -18.03 16.242 c -6.75 5.66 -15.39 9.258 -24.06 13.41 c -9.13 2.758 -18.51 6.648 -28.72 7.238 c -10.03 1.75 -20.44 1.071 -30.7 0.551 c -10.24 -1.641 -20.32 -3.73 -29.8 -7.488 c -9.69 -3.071 -18.23 -8.692 -26.24 -13.782 c -15.84 -10.968 -27.31 -25.121 -34.39 -38.171 c -4.27 -5.957 -5.89 -13.34 -8.15 -18.707 c -2.43 -5.571 -2.88 -10.5 -3.54 -14.582 c -1.22 -8.18 -1.67 -12.95 -1.67 -12.95 c 0 0 2.84 3.879 7.3 10.828 c 2.15 3.473 4.75 7.891 8.42 11.852 c 3.79 4.02 6.57 8.93 11.65 13.328 c 17.9 18.891 47.3 36.133 79.89 39.461 M 3392.7 259.148 c 0 0 -1.26 4.454 -4.16 12.442 c -1.34 4.051 -3.28 8.879 -6.66 13.75 c -3.12 5.051 -6.44 11.199 -11.87 16.308 c -4.81 5.844 -10.71 11.5 -18.06 16.262 c -6.76 5.668 -15.37 9.27 -24.04 13.41 c -9.14 2.77 -18.52 6.66 -28.73 7.258 c -10.04 1.742 -20.42 1.043 -30.69 0.512 c -10.26 -1.61 -20.31 -3.731 -29.8 -7.469 c -9.69 -3.062 -18.23 -8.699 -26.26 -13.769 c -15.8 -10.993 -27.32 -25.114 -34.35 -38.172 c -4.29 -5.969 -5.9 -13.348 -8.17 -18.711 c -2.45 -5.578 -2.9 -10.52 -3.53 -14.598 c -1.22 -8.172 -1.67 -12.922 -1.67 -12.922 c 0 0 2.8 3.852 7.29 10.801 c 2.14 3.48 4.76 7.91 8.39 11.852 c 3.8 4.039 6.56 8.957 11.68 13.328 c 17.91 18.859 47.29 36.16 79.89 39.48 c 8.01 0.57 16.2 1.66 24.11 0.461 c 8.1 -0.32 15.77 -2.012 23.4 -3.461 c 7.03 -2.808 14.8 -3.969 21.04 -7.578 c 6.64 -2.82 12.69 -6.102 18.04 -9.812 c 5.72 -3.18 10.09 -7.239 14.41 -10.629 c 4.39 -3.301 7.89 -6.582 10.52 -9.621 c 5.85 -5.79 9.22 -9.122 9.22 -9.122 m -211.94 292.934 c 8.02 0.586 16.21 1.68 24.14 0.457 c 8.08 -0.328 15.74 -1.988 23.4 -3.457 c 7.02 -2.793 14.77 -3.973 21.02 -7.551 c 6.62 -2.851 12.7 -6.133 18.03 -9.82 c 5.75 -3.172 10.1 -7.231 14.4 -10.621 c 4.4 -3.301 7.9 -6.61 10.54 -9.621 c 5.85 -5.789 9.2 -9.117 9.2 -9.117 c 0 0 -1.24 4.437 -4.15 12.437 c -1.33 4.02 -3.28 8.859 -6.65 13.75 c -3.12 5.051 -6.43 11.191 -11.88 16.332 c -4.81 5.789 -10.71 11.469 -18.04 16.219 c -6.76 5.66 -15.38 9.262 -24.04 13.422 c -9.14 2.758 -18.55 6.636 -28.73 7.238 c -10.06 1.75 -20.44 1.059 -30.7 0.551 c -10.25 -1.641 -20.3 -3.742 -29.82 -7.481 c -9.67 -3.058 -18.23 -8.699 -26.24 -13.8 c -15.82 -10.969 -27.29 -25.122 -34.38 -38.168 c -4.26 -5.961 -5.84 -13.332 -8.16 -18.711 c -2.43 -5.551 -2.87 -10.493 -3.52 -14.582 c -1.22 -8.168 -1.66 -12.918 -1.66 -12.918 c 0 0 2.82 3.871 7.29 10.8 c 2.13 3.481 4.74 7.911 8.4 11.848 c 3.81 4.02 6.56 8.961 11.67 13.332 c 17.91 18.867 47.29 36.141 79.88 39.461 m 439.92 106.949 c 0 0 2.8 3.84 7.31 10.821 c 2.12 3.468 4.76 7.886 8.39 11.82 c 3.81 4.047 6.56 8.957 11.67 13.328 c 17.91 18.871 47.28 36.16 79.9 39.48 c 8 0.571 16.18 1.668 24.11 0.442 c 8.09 -0.313 15.74 -1.992 23.42 -3.434 c 7.01 -2.828 14.77 -3.976 21 -7.558 c 6.65 -2.871 12.7 -6.121 18.03 -9.848 c 5.73 -3.16 10.11 -7.23 14.42 -10.621 c 4.39 -3.301 7.89 -6.602 10.53 -9.609 c 5.83 -5.801 9.22 -9.122 9.22 -9.122 c 0 0 -1.27 4.461 -4.17 12.442 c -1.34 4.019 -3.26 8.879 -6.65 13.75 c -3.12 5.047 -6.42 11.187 -11.89 16.328 c -4.81 5.809 -10.71 11.469 -18.03 16.238 c -6.78 5.66 -15.37 9.25 -24.05 13.403 c -9.13 2.781 -18.54 6.648 -28.74 7.25 c -10.04 1.757 -20.42 1.078 -30.7 0.531 c -10.23 -1.641 -20.31 -3.742 -29.79 -7.473 c -9.67 -3.07 -18.23 -8.699 -26.26 -13.777 c -15.8 -11 -27.3 -25.121 -34.36 -38.16 c -4.28 -5.973 -5.89 -13.332 -8.18 -18.711 c -2.42 -5.582 -2.86 -10.5 -3.52 -14.602 c -1.22 -8.16 -1.66 -12.918 -1.66 -12.918 m -45.6 116.899 c 0 0 -1.26 4.429 -4.15 12.441 c -1.33 4.027 -3.26 8.879 -6.65 13.719 c -3.14 5.082 -6.44 11.219 -11.89 16.34 c -4.8 5.812 -10.72 11.492 -18.03 16.261 c -6.77 5.641 -15.38 9.25 -24.07 13.399 c -9.12 2.781 -18.51 6.648 -28.72 7.23 c -10.05 1.77 -20.42 1.078 -30.68 0.551 c -10.27 -1.641 -20.31 -3.742 -29.83 -7.473 c -9.66 -3.066 -18.22 -8.699 -26.24 -13.777 c -15.81 -10.992 -27.29 -25.121 -34.35 -38.18 c -4.29 -5.949 -5.89 -13.339 -8.18 -18.691 c -2.44 -5.602 -2.88 -10.52 -3.53 -14.609 c -1.21 -8.18 -1.67 -12.911 -1.67 -12.911 c 0 0 2.82 3.84 7.3 10.79 c 2.14 3.468 4.75 7.89 8.4 11.851 c 3.82 4.02 6.56 8.957 11.67 13.328 c 17.91 18.891 47.3 36.172 79.89 39.492 c 8.01 0.559 16.21 1.661 24.13 0.438 c 8.07 -0.34 15.74 -2 23.4 -3.438 c 7.03 -2.82 14.76 -3.98 21 -7.589 c 6.65 -2.84 12.71 -6.114 18.05 -9.813 c 5.74 -3.199 10.11 -7.238 14.4 -10.629 c 4.4 -3.301 7.91 -6.601 10.54 -9.621 c 5.85 -5.789 9.21 -9.109 9.21 -9.109 m -225.2 350.74 c 7.03 -2.81 14.79 -3.99 21.01 -7.58 c 6.66 -2.87 12.7 -6.12 18.06 -9.81 c 5.73 -3.19 10.09 -7.27 14.39 -10.63 c 4.39 -3.3 7.92 -6.6 10.54 -9.61 c 5.85 -5.8 9.21 -9.13 9.21 -9.13 c 0 0 -1.24 4.45 -4.16 12.45 c -1.32 4.02 -3.26 8.87 -6.64 13.73 c -3.12 5.05 -6.44 11.19 -11.89 16.32 c -4.8 5.82 -10.72 11.5 -18.05 16.24 c -6.75 5.67 -15.36 9.25 -24.05 13.43 c -9.13 2.78 -18.51 6.64 -28.71 7.23 c -10.05 1.76 -20.44 1.07 -30.71 0.55 c -10.24 -1.63 -20.3 -3.73 -29.83 -7.47 c -9.65 -3.07 -18.2 -8.71 -26.21 -13.8 c -15.82 -10.97 -27.31 -25.12 -34.38 -38.17 c -4.29 -5.96 -5.87 -13.33 -8.17 -18.71 c -2.43 -5.57 -2.87 -10.5 -3.53 -14.6 c -1.21 -8.15 -1.65 -12.9 -1.65 -12.9 c 0 0 2.81 3.85 7.29 10.8 c 2.15 3.48 4.75 7.89 8.4 11.85 c 3.81 4.02 6.55 8.96 11.67 13.31 c 17.9 18.89 47.3 36.18 79.89 39.5 c 8.01 0.57 16.19 1.66 24.12 0.46 c 8.09 -0.35 15.76 -2.01 23.4 -3.46 M 3210.3 836.719 c 0 0 -1.24 4.461 -4.15 12.441 c -1.34 4.031 -3.26 8.879 -6.65 13.75 c -3.12 5.051 -6.45 11.192 -11.87 16.332 c -4.81 5.789 -10.72 11.477 -18.06 16.238 c -6.77 5.668 -15.37 9.25 -24.03 13.399 c -9.15 2.781 -18.53 6.652 -28.76 7.242 c -10.01 1.77 -20.42 1.09 -30.67 0.539 c -10.26 -1.64 -20.33 -3.73 -29.8 -7.469 c -9.7 -3.062 -18.23 -8.699 -26.26 -13.769 c -15.83 -10.992 -27.32 -25.113 -34.38 -38.172 c -4.27 -5.969 -5.88 -13.359 -8.16 -18.711 c -2.44 -5.578 -2.88 -10.519 -3.53 -14.598 c -1.23 -8.16 -1.67 -12.921 -1.67 -12.921 c 0 0 2.83 3.871 7.31 10.8 c 2.13 3.469 4.74 7.91 8.39 11.84 c 3.81 4.031 6.58 8.969 11.68 13.328 c 17.89 18.871 47.29 36.172 79.89 39.492 c 7.99 0.559 16.2 1.661 24.14 0.442 c 8.05 -0.34 15.7 -2 23.36 -3.442 c 7.05 -2.808 14.8 -3.98 21.04 -7.558 c 6.65 -2.863 12.71 -6.121 18.05 -9.844 c 5.71 -3.168 10.08 -7.226 14.41 -10.617 c 4.37 -3.301 7.87 -6.602 10.51 -9.621 c 5.86 -5.801 9.21 -9.121 9.21 -9.121 M 2967.12 623.941 c 0 0 -1.24 4.43 -4.16 12.438 c -1.32 4.012 -3.27 8.871 -6.65 13.723 c -3.11 5.078 -6.45 11.218 -11.88 16.328 c -4.82 5.84 -10.71 11.5 -18.05 16.269 c -6.76 5.66 -15.36 9.25 -24.03 13.403 c -9.16 2.769 -18.54 6.648 -28.75 7.23 c -10.04 1.77 -20.41 1.078 -30.7 0.547 c -10.23 -1.641 -20.29 -3.738 -29.79 -7.481 c -9.68 -3.058 -18.23 -8.699 -26.27 -13.769 c -15.79 -11 -27.29 -25.117 -34.35 -38.16 c -4.29 -5.969 -5.87 -13.36 -8.16 -18.719 c -2.45 -5.57 -2.89 -10.512 -3.53 -14.602 c -1.22 -8.179 -1.65 -12.918 -1.65 -12.918 c 0 0 2.79 3.84 7.29 10.801 c 2.12 3.469 4.75 7.918 8.39 11.84 c 3.81 4.051 6.56 8.969 11.67 13.34 c 17.91 18.867 47.29 36.148 79.89 39.48 c 8.02 0.571 16.2 1.661 24.13 0.43 c 8.09 -0.32 15.73 -1.98 23.38 -3.422 c 7.05 -2.828 14.79 -3.98 21.04 -7.59 c 6.63 -2.839 12.7 -6.097 18.03 -9.82 c 5.74 -3.187 10.11 -7.23 14.4 -10.621 c 4.39 -3.297 7.9 -6.598 10.55 -9.617 c 5.83 -5.789 9.2 -9.11 9.2 -9.11 m 349.58 584.769 c 18.63 0 36.49 -3.18 53.23 -8.81 c -0.26 137.75 -4.84 325.18 -9.81 469.41 c -76.92 28.79 -550.75 42.2 -812.56 49.6 c -96.47 2.73 -185.96 5.08 -240.76 7.57 c -68.09 3.03 -116.79 5.49 -146.4 4.11 c -5.91 -10.69 -10.43 -24.05 -13.13 -40.95 c -21.81 -136.62 10.53 -426.51 24.89 -460 c 13.05 -30.39 36.17 -37.36 101.18 -53.02 l 2.85 -0.69 c 46.02 -11.08 565.03 -99.55 873.55 -139.03 c -0.04 1.55 -0.24 3.05 -0.24 4.64 c 0 92.33 74.87 167.17 167.2 167.17 m -1143.12 539.53 c 24.89 0.55 66.71 -1.13 139.86 -4.41 c 54.63 -2.44 138.04 -4.8 234.43 -7.54 c 428.59 -12.11 691.98 -23.54 792.08 -45.2 c -136.92 42.14 -649.92 203.93 -655.7 205.74 c -0.06 0.05 -1.92 0.59 -7.01 0.59 c -56.7 0 -252.34 -61.23 -357.44 -94.13 c -32.34 -10.12 -57.83 -18.1 -71.26 -21.83 l -10.51 -2.82 c -23.16 -6.11 -46.73 -12.4 -64.45 -30.4 M 3438.3 1327.79 c 0 0 2.8 3.84 7.29 10.8 c 2.14 3.47 4.75 7.89 8.4 11.85 c 3.79 4.02 6.56 8.96 11.65 13.33 c 17.91 18.87 47.31 36.15 79.91 39.48 c 8 0.55 16.2 1.65 24.14 0.43 c 8.05 -0.32 15.71 -1.98 23.39 -3.42 c 7.03 -2.83 14.77 -3.98 21.02 -7.56 c 6.65 -2.87 12.71 -6.13 18.04 -9.87 c 5.75 -3.17 10.08 -7.23 14.4 -10.6 c 4.38 -3.3 7.89 -6.6 10.54 -9.62 c 5.84 -5.79 9.2 -9.11 9.2 -9.11 c 0 0 -1.24 4.46 -4.17 12.44 c -1.34 4.01 -3.24 8.87 -6.65 13.72 c -3.11 5.05 -6.45 11.19 -11.87 16.36 c -4.81 5.79 -10.71 11.47 -18.05 16.22 c -6.76 5.65 -15.37 9.27 -24.03 13.42 c -9.16 2.75 -18.54 6.67 -28.75 7.23 c -10.04 1.77 -20.42 1.1 -30.7 0.55 c -10.22 -1.64 -20.3 -3.74 -29.78 -7.48 c -9.69 -3.06 -18.24 -8.72 -26.26 -13.77 c -15.81 -11 -27.32 -25.12 -34.38 -38.18 c -4.27 -5.97 -5.88 -13.34 -8.15 -18.7 c -2.44 -5.59 -2.89 -10.51 -3.55 -14.62 c -1.21 -8.16 -1.64 -12.9 -1.64 -12.9 m 195.57 -205.81 c -9.69 -3.06 -18.24 -8.71 -26.24 -13.77 c -15.84 -11 -27.33 -25.12 -34.41 -38.17 c -4.26 -5.99 -5.87 -13.34 -8.14 -18.72 c -2.44 -5.59 -2.89 -10.51 -3.54 -14.6 c -1.22 -8.17 -1.67 -12.92 -1.67 -12.92 c 0 0 2.83 3.85 7.31 10.82 c 2.15 3.46 4.74 7.87 8.41 11.83 c 3.78 4.04 6.58 8.96 11.67 13.34 c 17.88 18.86 47.28 36.15 79.88 39.47 c 8 0.58 16.19 1.66 24.13 0.44 c 8.07 -0.32 15.71 -1.99 23.39 -3.43 c 7.04 -2.82 14.8 -3.98 21.02 -7.57 c 6.65 -2.86 12.71 -6.12 18.07 -9.83 c 5.7 -3.17 10.05 -7.26 14.38 -10.63 c 4.39 -3.3 7.89 -6.6 10.53 -9.61 c 5.84 -5.8 9.21 -9.12 9.21 -9.12 c 0 0 -1.25 4.46 -4.16 12.44 c -1.35 4.02 -3.27 8.87 -6.64 13.75 c -3.12 5.03 -6.44 11.19 -11.87 16.32 c -4.81 5.82 -10.71 11.49 -18.06 16.25 c -6.77 5.66 -15.38 9.27 -24.04 13.4 c -9.14 2.78 -18.52 6.64 -28.74 7.24 c -10.02 1.77 -20.42 1.09 -30.7 0.55 c -10.23 -1.65 -20.31 -3.74 -29.79 -7.48 m 397.19 -810.011 c 0 -92.321 -74.87 -167.18 -167.2 -167.18 c -30.94 0 -59.8 8.543 -84.65 23.191 c -22.12 -66.429 -84.69 -114.3902 -158.53 -114.3902 c -92.33 0 -167.19 74.8592 -167.19 167.1802 c 0 10.992 1.12 21.699 3.15 32.089 c -2.33 1.141 -4.74 2.161 -7.01 3.391 c 2.48 -11.43 3.86 -23.281 3.86 -35.48 c 0 -92.321 -74.87 -167.1802 -167.21 -167.1802 c -92.32 0 -167.16 74.8592 -167.16 167.1802 c 0 30.929 8.55 59.789 23.19 84.64 c -66.43 22.121 -114.41 84.711 -114.41 158.559 c 0 92.312 74.88 167.179 167.21 167.179 c 92.31 0 167.18 -74.867 167.18 -167.179 c 0 -30.918 -8.55 -59.797 -23.2 -84.649 c 9.41 -3.129 18.48 -6.949 27.06 -11.629 c -2.49 11.43 -3.86 23.278 -3.86 35.457 c 0 92.344 74.87 167.204 167.18 167.204 c 26.68 0 51.82 -6.422 74.2 -17.532 c -17.26 25.539 -27.5 56.168 -28.37 89.11 c -30.21 -43.25 -80.27 -71.578 -137 -71.578 c -92.33 0 -167.21 74.878 -167.21 167.187 c 0 58.352 29.95 109.68 75.29 139.582 c -9.65 -1.73 -19.54 -2.769 -29.68 -2.769 c -26.7 0 -51.84 6.398 -74.23 17.527 c 18.09 -26.688 28.62 -58.899 28.62 -93.547 c 0 -92.312 -74.85 -167.184 -167.19 -167.184 c -34.65 0 -66.83 10.532 -93.54 28.622 c 11.13 -22.379 17.54 -47.532 17.54 -74.219 c 0 -92.321 -74.85 -167.192 -167.18 -167.192 c -92.33 0 -167.2 74.871 -167.2 167.192 c 0 92.308 74.87 167.187 167.2 167.187 c 34.66 0 66.84 -10.539 93.53 -28.597 c -11.12 22.39 -17.54 47.5 -17.54 74.191 c 0 92.328 74.88 167.188 167.19 167.188 c 26.7 0 51.83 -6.411 74.22 -17.528 c -9.38 13.86 -16.65 29.207 -21.56 45.61 c -309.82 40.238 -841.79 133.228 -888.51 144.508 l -2.87 2.68 c -65.11 15.71 -104.42 26.16 -124.98 74.15 c -18.41 42.96 -49.94 337.84 -27.28 479.68 c 14.44 90.37 75.71 106.75 116.27 117.39 l 10.01 2.83 c 13.23 3.69 38.34 11.6 70.2 21.59 c 114.4 35.81 305.82 95.75 367.84 95.75 c 7.11 0 12.85 -0.72 17.56 -2.21 c 61.41 -19.57 667.37 -210.2 685.62 -214.84 l 12.63 -3.19 l 0.84 -13.12 c 2.91 -80.24 6.92 -204.31 9.09 -326.43 c 23.42 64.07 84.74 109.91 156.89 109.91 c 92.34 0 167.21 -74.88 167.21 -167.19 c 0 -58.34 -29.95 -109.65 -75.27 -139.58 c 9.65 1.73 19.52 2.78 29.65 2.78 c 92.33 0 167.22 -74.87 167.22 -167.18 c 0 -92.321 -74.89 -167.189 -167.22 -167.189 c -92.3 0 -167.17 74.868 -167.17 167.189 c 0 58.34 29.94 109.64 75.24 139.58 c -9.64 -1.76 -19.51 -2.81 -29.66 -2.81 c -70.66 0 -130.97 43.97 -155.43 105.94 c 0.14 -24.29 0.15 -47.83 0 -70.21 c 47.61 -29.48 79.44 -82.01 79.44 -142.09 c 0 -58.349 -29.96 -109.681 -75.28 -139.579 c 9.65 1.719 19.54 2.769 29.7 2.769 c 90.83 0 164.57 -72.511 166.94 -162.769 c 30.22 43.238 80.28 71.57 137.03 71.57 c 92.31 0 167.18 -74.883 167.18 -167.191 c 0 -92.309 -74.87 -167.192 -167.18 -167.192 c -26.67 0 -51.81 6.411 -74.17 17.543 c 18.03 -26.722 28.59 -58.89 28.59 -93.543 c 0 -10.976 -1.13 -21.679 -3.15 -32.07 c 4.03 -1.969 7.96 -4.047 11.78 -6.316 c 22.13 66.429 84.69 114.386 158.54 114.386 c 92.33 0 167.2 -74.859 167.2 -167.179 m 364.76 555.16 c 0 0 -1.22 4.43 -4.15 12.441 c -1.34 4.032 -3.26 8.852 -6.65 13.719 c -3.11 5.051 -6.45 11.223 -11.87 16.34 c -4.81 5.812 -10.71 11.5 -18.05 16.242 c -6.76 5.668 -15.37 9.27 -24.03 13.418 c -9.16 2.75 -18.53 6.652 -28.77 7.242 c -10.01 1.739 -20.42 1.071 -30.67 0.539 c -10.22 -1.64 -20.32 -3.738 -29.79 -7.468 c -9.71 -3.063 -18.24 -8.704 -26.25 -13.801 c -15.83 -10.973 -27.33 -25.11 -34.39 -38.16 c -4.27 -5.969 -5.88 -13.34 -8.15 -18.711 c -2.45 -5.578 -2.89 -10.5 -3.55 -14.61 c -1.22 -8.16 -1.66 -12.902 -1.66 -12.902 c 0 0 2.82 3.852 7.31 10.801 c 2.14 3.48 4.76 7.89 8.39 11.851 c 3.8 4.02 6.56 8.961 11.67 13.321 c 17.91 18.879 47.31 36.148 79.9 39.468 c 8.01 0.59 16.2 1.692 24.14 0.469 c 8.06 -0.316 15.71 -1.996 23.39 -3.437 c 7.01 -2.821 14.77 -4 21 -7.59 c 6.64 -2.84 12.73 -6.11 18.06 -9.813 c 5.72 -3.199 10.08 -7.258 14.38 -10.629 c 4.4 -3.3 7.89 -6.597 10.54 -9.617 c 5.86 -5.793 9.2 -9.113 9.2 -9.113 M 4183.06 623.941 c 0 0 -1.27 4.43 -4.15 12.438 c -1.36 4.012 -3.28 8.871 -6.67 13.723 c -3.13 5.078 -6.43 11.218 -11.87 16.328 c -4.81 5.84 -10.74 11.5 -18.07 16.269 c -6.74 5.66 -15.36 9.25 -24.04 13.403 c -9.14 2.769 -18.53 6.648 -28.72 7.23 c -10.04 1.77 -20.44 1.078 -30.69 0.547 c -10.26 -1.641 -20.31 -3.738 -29.82 -7.481 c -9.66 -3.058 -18.23 -8.699 -26.24 -13.769 c -15.82 -11 -27.29 -25.117 -34.38 -38.16 c -4.26 -5.969 -5.86 -13.36 -8.18 -18.719 c -2.42 -5.57 -2.86 -10.512 -3.51 -14.602 c -1.23 -8.179 -1.66 -12.918 -1.66 -12.918 c 0 0 2.81 3.84 7.29 10.801 c 2.15 3.469 4.75 7.918 8.4 11.84 c 3.8 4.051 6.58 8.969 11.67 13.34 c 17.91 18.867 47.29 36.148 79.9 39.48 c 8.02 0.571 16.21 1.661 24.12 0.43 c 8.08 -0.32 15.76 -1.98 23.4 -3.422 c 7.03 -2.828 14.79 -3.98 21.02 -7.59 c 6.64 -2.839 12.69 -6.097 18.06 -9.82 c 5.72 -3.187 10.06 -7.23 14.37 -10.621 c 4.4 -3.297 7.9 -6.598 10.54 -9.617 c 5.86 -5.789 9.23 -9.11 9.23 -9.11 m -60.81 364.77 c 0 0 -1.23 4.469 -4.16 12.439 c -1.33 4.03 -3.26 8.88 -6.64 13.74 c -3.11 5.04 -6.46 11.21 -11.88 16.34 c -4.8 5.79 -10.71 11.48 -18.06 16.24 c -6.77 5.65 -15.36 9.25 -24.04 13.41 c -9.14 2.77 -18.51 6.64 -28.75 7.24 c -10.01 1.77 -20.41 1.06 -30.68 0.54 c -10.24 -1.64 -20.32 -3.74 -29.81 -7.48 c -9.68 -3.05 -18.2 -8.7 -26.23 -13.77 c -15.82 -10.99 -27.32 -25.11 -34.38 -38.19 c -4.29 -5.97 -5.88 -13.329 -8.16 -18.689 c -2.45 -5.601 -2.9 -10.519 -3.53 -14.621 c -1.23 -8.148 -1.67 -12.898 -1.67 -12.898 c 0 0 2.8 3.847 7.3 10.797 c 2.14 3.48 4.77 7.89 8.4 11.851 c 3.8 4.02 6.57 8.961 11.67 13.309 c 17.9 18.881 47.31 36.181 79.9 39.501 c 8 0.57 16.18 1.66 24.11 0.44 c 8.09 -0.33 15.74 -1.99 23.39 -3.44 c 7.04 -2.81 14.8 -3.97 21.03 -7.58 c 6.67 -2.84 12.7 -6.1 18.06 -9.81 c 5.71 -3.19 10.07 -7.27 14.4 -10.63 c 4.37 -3.3 7.87 -6.6 10.52 -9.618 c 5.84 -5.793 9.21 -9.121 9.21 -9.121 m -15.2 247.879 c 0 0 2.82 3.87 7.3 10.8 c 2.14 3.47 4.74 7.89 8.39 11.85 c 3.81 4.04 6.57 8.96 11.67 13.33 c 17.91 18.89 47.29 36.16 79.89 39.48 c 8.01 0.57 16.22 1.66 24.13 0.44 c 8.08 -0.33 15.76 -1.97 23.41 -3.43 c 7.02 -2.83 14.76 -3.98 21.01 -7.56 c 6.64 -2.87 12.7 -6.13 18.06 -9.85 c 5.72 -3.16 10.08 -7.25 14.38 -10.62 c 4.42 -3.3 7.89 -6.6 10.54 -9.62 c 5.85 -5.79 9.2 -9.11 9.2 -9.11 c 0 0 -1.25 4.46 -4.13 12.44 c -1.36 4.04 -3.28 8.87 -6.67 13.75 c -3.13 5.03 -6.43 11.19 -11.87 16.33 c -4.81 5.81 -10.73 11.47 -18.05 16.22 c -6.76 5.68 -15.37 9.27 -24.06 13.42 c -9.13 2.77 -18.53 6.65 -28.72 7.23 c -10.06 1.77 -20.44 1.1 -30.69 0.55 c -10.25 -1.64 -20.33 -3.74 -29.81 -7.47 c -9.69 -3.07 -18.24 -8.7 -26.24 -13.78 c -15.83 -11 -27.3 -25.12 -34.38 -38.18 c -4.27 -5.97 -5.89 -13.33 -8.18 -18.7 c -2.43 -5.59 -2.86 -10.51 -3.52 -14.63 c -1.2 -8.15 -1.66 -12.89 -1.66 -12.89 m 129.41 -209.88 c -2.62 -0.11 -5.18 -0.39 -7.83 -0.39 c -26.69 0 -51.8 6.43 -74.19 17.55 c 9.11 -13.51 16.31 -28.4 21.2 -44.311 c 10.61 4.901 31.77 14.511 60.82 27.151 m -205.4 326.79 c 0 0 -1.27 4.46 -4.15 12.44 c -1.35 4.01 -3.28 8.87 -6.65 13.72 c -3.14 5.05 -6.44 11.19 -11.89 16.36 c -4.81 5.79 -10.73 11.47 -18.06 16.22 c -6.75 5.65 -15.36 9.27 -24.04 13.42 c -9.14 2.75 -18.52 6.67 -28.72 7.23 c -10.04 1.77 -20.42 1.1 -30.69 0.55 c -10.26 -1.64 -20.32 -3.74 -29.82 -7.48 c -9.67 -3.06 -18.23 -8.72 -26.24 -13.77 c -15.82 -11 -27.3 -25.12 -34.38 -38.18 c -4.26 -5.97 -5.86 -13.34 -8.18 -18.7 c -2.4 -5.59 -2.86 -10.51 -3.49 -14.62 c -1.25 -8.16 -1.68 -12.9 -1.68 -12.9 c 0 0 2.81 3.84 7.31 10.8 c 2.13 3.47 4.75 7.89 8.4 11.85 c 3.78 4.02 6.56 8.96 11.65 13.33 c 17.93 18.87 47.28 36.15 79.9 39.48 c 8.02 0.55 16.19 1.65 24.11 0.43 c 8.09 -0.32 15.77 -1.98 23.41 -3.42 c 7.04 -2.83 14.78 -3.98 21.01 -7.56 c 6.65 -2.87 12.7 -6.13 18.05 -9.87 c 5.74 -3.17 10.11 -7.23 14.39 -10.6 c 4.39 -3.3 7.92 -6.6 10.54 -9.62 c 5.86 -5.79 9.22 -9.11 9.22 -9.11 m 425.55 -524.758 c 0 -92.312 -74.84 -167.183 -167.19 -167.183 c -26.69 0 -51.8 6.421 -74.19 17.55 c 18.04 -26.711 28.6 -58.89 28.6 -93.558 c 0 -92.321 -74.87 -167.192 -167.17 -167.192 c -92.33 0 -167.21 74.871 -167.21 167.192 c 0 92.308 74.88 167.187 167.21 167.187 c 26.7 0 51.84 -6.406 74.22 -17.527 c -16.84 24.848 -26.93 54.539 -28.26 86.488 c -28.97 -24.058 -66.17 -38.551 -106.77 -38.551 c -92.31 0 -167.17 74.864 -167.17 167.184 c 0 92.318 74.86 167.208 167.17 167.208 c 26.69 0 51.83 -6.42 74.19 -17.56 c -17.27 25.54 -27.5 56.15 -28.37 89.08 c -30.23 -43.21 -80.29 -71.52 -137 -71.52 c -92.34 0 -167.21 74.85 -167.21 167.16 c 0 92.34 74.87 167.22 167.21 167.22 c 90.79 0 164.56 -72.49 166.94 -162.76 c 30.24 43.2 80.29 71.53 137.02 71.53 c 92.32 0 167.19 -74.85 167.19 -167.16 c 0 -48.84 -21.07 -92.67 -54.47 -123.23 c 52.57 20.75 113.56 42.85 178.33 61.71 c 0.17 0.41 0.35 0.77 0.54 1.22 c 0.92 1.97 2.05 4.38 3.35 7.22 c 1.14 2.9 2.1 6.43 3.41 10.28 c 1.47 3.79 2.45 8.24 3.39 13.15 c 0.53 2.43 1.08 4.96 1.64 7.61 c 0.28 2.71 0.59 5.53 0.92 8.43 c 0.28 2.93 0.74 5.91 0.94 9.06 c 0.07 3.17 0.13 6.42 0.22 9.74 c 0.41 6.67 -0.33 13.84 -0.68 21.28 c -0.46 7.45 -1.75 15.28 -2.78 23.36 c -1.67 8.07 -2.77 16.49 -5.11 25.04 c -3.83 17.22 -9.78 35.13 -16.17 53.59 c -6.9 18.34 -14.39 37.3 -23.25 56.12 c -8.59 18.91 -18.12 37.84 -28.06 56.62 c -39.9 75.07 -86.92 146.82 -121.17 201.16 c -17.21 27.15 -31.24 49.99 -40.67 66.21 c -4.72 8.14 -8.32 14.54 -10.68 18.98 c -2.4 4.39 -3.67 6.75 -3.67 6.75 c 0 0 1.41 -2.27 4.11 -6.51 c 2.61 -4.27 6.69 -10.43 11.86 -18.21 c 10.45 -15.52 25.91 -37.34 44.84 -63.28 c 37.68 -52 89.34 -120.48 134.81 -193.97 c 11.32 -18.39 22.3 -37.06 32.42 -55.9 c 10.32 -18.74 19.41 -37.84 27.87 -56.57 c 7.98 -18.95 15.52 -37.49 20.92 -55.95 c 3.11 -9.02 5 -18.29 7.41 -27.06 c 1.77 -8.96 3.73 -17.59 4.86 -26.12 c 0.97 -8.54 2.31 -16.68 2.4 -24.66 c 0.18 -3.97 0.32 -7.85 0.5 -11.61 c 0 -3.8 -0.26 -7.49 -0.39 -11.1 c -0.18 -3.59 -0.35 -7.06 -0.5 -10.43 c -0.49 -3.36 -0.95 -6.62 -1.38 -9.73 c -0.51 -3.93 -1.12 -7.58 -1.81 -11.05 c 4.36 1.09 8.7 2.31 13.09 3.38 c 54.41 13.3 110.37 22.76 164.47 25.84 c 54.07 2.73 106.72 -1.58 151.71 -15.74 c 22.49 -6.84 42.84 -15.98 60.03 -26.35 c 17.21 -10.22 31.28 -21.41 41.93 -31.51 c 10.85 -10.06 18.4 -18.87 23.15 -25.18 c 4.96 -6.22 7.61 -9.52 7.61 -9.52 l -76.18 -50.16 c -0.57 -0.44 -4.62 9.76 -16.95 23.78 c -6.03 7.15 -14.17 15.26 -24.96 23.37 c -10.71 8.22 -24.29 16.24 -40.68 23.17 c -32.6 14.32 -76.55 23.21 -125.48 25.79 c -48.99 2.33 -102.68 -0.94 -156.19 -8.32 c -107.3 -14.5 -213.68 -43.01 -292.51 -66.43 c -60.86 -18.22 -105.57 -33.19 -122.94 -39.12 c 3.97 -13.149 6.23 -27.02 6.82 -41.309 c 28.96 24.07 66.17 38.559 106.73 38.559 c 92.35 0 167.19 -74.871 167.19 -167.188 M 3027.9 319.949 c 0 0 -1.24 4.461 -4.16 12.442 c -1.32 4.039 -3.26 8.871 -6.62 13.75 c -3.13 5.039 -6.48 11.187 -11.89 16.32 c -4.81 5.82 -10.72 11.488 -18.04 16.25 c -6.77 5.66 -15.38 9.269 -24.06 13.398 c -9.15 2.782 -18.52 6.661 -28.73 7.262 c -10.03 1.75 -20.43 1.07 -30.68 0.527 c -10.25 -1.628 -20.32 -3.75 -29.81 -7.488 c -9.68 -3.051 -18.24 -8.699 -26.24 -13.762 c -15.84 -11 -27.31 -25.117 -34.38 -38.179 c -4.27 -5.969 -5.9 -13.328 -8.17 -18.707 c -2.43 -5.571 -2.86 -10.512 -3.53 -14.602 c -1.21 -8.148 -1.67 -12.918 -1.67 -12.918 c 0 0 2.84 3.867 7.32 10.817 c 2.13 3.48 4.74 7.89 8.39 11.832 c 3.8 4.039 6.56 8.961 11.67 13.339 c 17.9 18.852 47.28 36.149 79.86 39.469 c 8.04 0.582 16.24 1.66 24.16 0.461 c 8.06 -0.32 15.73 -2.012 23.39 -3.449 c 7.04 -2.82 14.77 -3.981 21 -7.57 c 6.66 -2.84 12.72 -6.121 18.08 -9.832 c 5.71 -3.168 10.08 -7.239 14.37 -10.629 c 4.41 -3.301 7.91 -6.578 10.55 -9.621 c 5.86 -5.789 9.19 -9.11 9.19 -9.11 m 60.81 -68.777 c 0 -92.332 -74.87 -167.1837 -167.19 -167.1837 c -92.31 0 -167.19 74.8517 -167.19 167.1837 c 0 92.316 74.88 167.187 167.19 167.187 c 92.32 0 167.19 -74.871 167.19 -167.187 m -395.19 129.566 c 0 0 -1.24 4.461 -4.15 12.442 c -1.32 4.05 -3.26 8.871 -6.63 13.75 c -3.15 5.05 -6.47 11.199 -11.89 16.332 c -4.83 5.808 -10.72 11.476 -18.05 16.238 c -6.78 5.668 -15.36 9.27 -24.05 13.422 c -9.14 2.758 -18.52 6.648 -28.73 7.238 c -10.03 1.75 -20.42 1.07 -30.7 0.551 c -10.25 -1.652 -20.3 -3.762 -29.8 -7.5 c -9.67 -3.063 -18.23 -8.68 -26.25 -13.77 c -15.8 -11 -27.29 -25.121 -34.35 -38.171 c -4.3 -5.961 -5.9 -13.34 -8.18 -18.688 c -2.44 -5.602 -2.88 -10.523 -3.53 -14.633 c -1.21 -8.148 -1.67 -12.89 -1.67 -12.89 c 0 0 2.82 3.839 7.33 10.793 c 2.12 3.476 4.74 7.89 8.39 11.828 c 3.8 4.039 6.56 8.961 11.67 13.34 c 17.89 18.878 47.28 36.152 79.86 39.48 c 8.03 0.57 16.22 1.68 24.13 0.461 c 8.09 -0.332 15.75 -1.992 23.39 -3.461 c 7.04 -2.82 14.79 -3.98 21.01 -7.57 c 6.68 -2.84 12.72 -6.11 18.08 -9.809 c 5.73 -3.191 10.1 -7.262 14.39 -10.641 c 4.38 -3.308 7.9 -6.589 10.54 -9.621 c 5.85 -5.8 9.19 -9.121 9.19 -9.121 m 60.81 -38.379 c 0 -92.32 -74.87 -167.168 -167.18 -167.168 c -92.34 0 -167.2 74.848 -167.2 167.168 c 0 92.332 74.86 167.2 167.2 167.2 c 92.31 0 167.18 -74.868 167.18 -167.2 M 2111.3 2946.88 c -18.09 9.39 -124.21 21.26 -295.77 21.26 c -171.56 0 -277.69 -11.87 -295.77 -21.26 c 18.08 -9.39 124.21 -21.26 295.77 -21.26 c 171.56 0 277.68 11.87 295.77 21.26 M 3210.91 1462.4 c 3.47 6.3 3.54 12.66 3.28 17.53 c -0.46 4.97 -1.82 8.88 -3.19 11.88 c -2.79 5.95 -5.42 8.52 -5.42 8.52 c 0 0 -0.15 -3.74 -1.45 -9.4 c -1.15 -5.6 -4.17 -13.29 -9.54 -17 c -2.82 -1.8 -5.68 -3 -9.75 -3.59 c -3.67 -0.81 -8.73 -0.87 -13.1 -0.66 c -1.86 -0.06 -5.45 0.29 -8.62 0.55 l -4.86 0.42 c 0.36 0.15 -1.93 0.52 -2.76 0.74 c -4.83 0.81 -8.96 2.26 -12.27 4.27 c -1.6 1.02 -3.48 1.74 -4.58 3.27 c -0.67 0.68 -1.38 1.27 -2.16 1.83 l -1.69 2.42 c -2.46 3.05 -4.11 7.23 -5.6 11.58 c -1.28 4.46 -1.97 9.2 -2.36 13.94 c -0.09 4.7 -0.07 9.27 0.47 13.58 c 0.86 4.09 1.6 8.03 2.9 11.28 c 1.36 2.93 2.9 6.28 4.34 7.69 c 1.26 2.08 3.75 3.53 5.24 4.16 c 1.47 0.78 2.28 1.22 2.28 1.22 c 0 0 -0.87 0.22 -2.5 0.64 c -1.67 0.39 -3.81 1.41 -7.64 0.35 c -4.1 -0.62 -7.74 -2.59 -11.85 -5.54 c -4 -2.99 -7.8 -7.08 -11.11 -12.13 c -3.19 -5.05 -6.03 -10.95 -7.95 -17.64 c -1.71 -6.68 -2.78 -14.14 -2.23 -22.1 c 0.71 -7.93 2.48 -16.59 7.25 -24.57 c 2.15 -4.13 4.86 -7.98 8.43 -11.28 c 3.19 -3.71 7.22 -6.2 11.29 -8.76 c 8.19 -4.66 17.19 -7.24 25.44 -7.68 c 2.42 -0.21 3.38 -0.44 6.99 -0.56 l 4.89 0.35 c 3.28 0.25 6.08 0.25 10.45 1.17 c 8.06 1.34 15.17 3.48 21.92 7.52 c 6.71 3.54 12.38 9.82 15.46 16 m -434.7 -248.87 c -2.8 5.96 -5.44 8.52 -5.44 8.52 c 0 0 -0.14 -3.72 -1.45 -9.37 c -1.15 -5.6 -4.15 -13.29 -9.54 -17.01 c -2.82 -1.82 -5.66 -3.02 -9.75 -3.59 c -3.65 -0.81 -8.73 -0.9 -13.1 -0.65 c -1.85 -0.09 -5.43 0.28 -8.61 0.53 l -4.87 0.41 c 0.37 0.17 -1.9 0.52 -2.73 0.74 c -4.84 0.83 -8.99 2.27 -12.27 4.27 c -1.6 1.04 -3.49 1.74 -4.61 3.3 c -0.64 0.65 -1.38 1.24 -2.16 1.8 l -1.67 2.42 c -2.48 3.05 -4.13 7.23 -5.59 11.58 c -1.29 4.48 -2 9.21 -2.36 13.94 c -0.12 4.71 -0.08 9.27 0.48 13.61 c 0.83 4.08 1.58 7.99 2.88 11.28 c 1.36 2.9 2.9 6.25 4.34 7.69 c 1.24 2.05 3.75 3.5 5.23 4.13 c 1.49 0.8 2.27 1.22 2.27 1.22 c 0 0 -0.86 0.22 -2.5 0.66 c -1.67 0.37 -3.78 1.42 -7.62 0.33 c -4.1 -0.6 -7.75 -2.56 -11.85 -5.51 c -3.99 -3.02 -7.82 -7.09 -11.12 -12.16 c -3.17 -5.05 -6.04 -10.93 -7.96 -17.61 c -1.67 -6.69 -2.77 -14.17 -2.22 -22.12 c 0.7 -7.92 2.49 -16.58 7.24 -24.55 c 2.18 -4.14 4.87 -8.01 8.44 -11.28 c 3.21 -3.72 7.25 -6.23 11.28 -8.79 c 8.21 -4.66 17.2 -7.22 25.44 -7.66 c 2.43 -0.21 3.4 -0.46 6.99 -0.59 l 4.89 0.38 c 3.28 0.26 6.08 0.24 10.48 1.18 c 8.06 1.33 15.15 3.44 21.92 7.5 c 6.71 3.55 12.36 9.81 15.44 16.01 c 3.47 6.28 3.55 12.64 3.28 17.54 c -0.46 4.96 -1.81 8.85 -3.18 11.85 m 116.29 304.18 c 0 0 0.58 -3.43 0.3 -9.16 c -0.24 -5.64 -1.6 -14.04 -7.17 -20.11 c -2.9 -2.88 -6.47 -5.35 -11.17 -6.73 c -4.45 -1.64 -10.05 -2.13 -15.32 -2.38 c -4.81 -0.23 -13.58 0.04 -17.78 1.04 c -5.68 0.62 -11.03 2.45 -15.55 5.14 c -2.22 1.43 -4.67 2.56 -6.33 4.61 l -2.82 2.71 l -2.13 3.32 c -2.96 4.33 -4.84 9.56 -6.03 14.85 c -1 5.36 -1.38 10.76 -1.22 16 c 0.46 5.18 1.22 10.1 2.41 14.6 c 1.44 4.33 2.96 8.29 4.95 11.48 c 2.02 2.93 4.09 5.93 6.19 7.15 c 1.9 1.83 4.29 2.64 5.85 3.01 c 1.52 0.51 2.32 0.77 2.32 0.77 c 0 0 -0.84 0.06 -2.45 0.17 c -1.6 0.14 -3.84 0.58 -7.03 -0.76 c -3.41 -0.81 -6.56 -3.12 -9.94 -6.07 c -3.33 -3.07 -6.41 -7.11 -9.06 -11.94 c -2.53 -4.85 -4.7 -10.43 -6.04 -16.62 c -1.16 -6.2 -1.92 -12.96 -1.1 -20.04 c 1.01 -7 2.52 -14.61 6.82 -21.32 l 3.16 -5.06 l 4.17 -4.42 c 2.62 -3.17 6.12 -5.25 9.56 -7.46 c 7 -3.95 14.78 -6.14 22.14 -6.78 c 2.02 -0.23 3.31 -0.49 5.91 -0.65 l 4.89 0.19 c 3.26 0.16 6.26 0.12 9.98 0.8 c 7.18 0.83 13.74 2.55 19.71 5.79 c 6.07 2.73 11.05 7.74 14.06 12.85 c 3.27 5.16 3.82 10.67 4.05 15.09 c 0 4.5 -0.7 8.26 -1.6 11.19 c -1.77 5.9 -3.73 8.74 -3.73 8.74 m 196.74 -269.41 c -2.77 5.97 -5.41 8.53 -5.41 8.53 c 0 0 -0.15 -3.71 -1.44 -9.38 c -1.14 -5.59 -4.17 -13.29 -9.54 -17 c -2.82 -1.8 -5.7 -3.02 -9.75 -3.59 c -3.67 -0.8 -8.74 -0.87 -13.1 -0.66 c -1.87 -0.05 -5.45 0.29 -8.62 0.55 l -4.86 0.39 c 0.35 0.18 -1.93 0.53 -2.76 0.75 c -4.84 0.83 -8.96 2.27 -12.28 4.26 c -1.59 1.06 -3.47 1.75 -4.58 3.3 c -0.65 0.66 -1.37 1.27 -2.14 1.82 l -1.71 2.42 c -2.47 3.05 -4.09 7.24 -5.59 11.57 c -1.28 4.47 -1.97 9.22 -2.37 13.95 c -0.09 4.71 -0.06 9.28 0.49 13.59 c 0.85 4.09 1.59 8.03 2.89 11.28 c 1.34 2.91 2.89 6.25 4.33 7.7 c 1.27 2.08 3.76 3.51 5.26 4.13 c 1.46 0.81 2.26 1.25 2.26 1.25 c 0 0 -0.86 0.19 -2.5 0.63 c -1.69 0.39 -3.81 1.42 -7.63 0.32 c -4.1 -0.58 -7.74 -2.55 -11.86 -5.5 c -3.99 -3.02 -7.79 -7.08 -11.09 -12.16 c -3.18 -5.02 -6.04 -10.93 -7.97 -17.62 c -1.7 -6.69 -2.77 -14.14 -2.22 -22.12 c 0.71 -7.91 2.47 -16.57 7.25 -24.55 c 2.15 -4.13 4.86 -7.98 8.43 -11.28 c 3.19 -3.71 7.23 -6.21 11.29 -8.79 c 8.19 -4.66 17.2 -7.21 25.44 -7.64 c 2.42 -0.23 3.36 -0.44 7 -0.6 l 4.88 0.37 c 3.28 0.26 6.08 0.26 10.45 1.2 c 8.06 1.32 15.16 3.46 21.93 7.5 c 6.7 3.55 12.35 9.82 15.45 16.01 c 3.48 6.27 3.56 12.63 3.28 17.53 c -0.46 4.96 -1.83 8.87 -3.21 11.84 m -541.99 237.95 c -4.22 9.82 -8.46 14.1 -8.46 14.1 c 0 0 -0.08 -6.09 -1.88 -15.43 c -0.7 -4.63 -2.56 -10.07 -4.65 -15.37 c -2.7 -5.11 -5.82 -10.38 -10.45 -13.57 c -4.61 -3.21 -9.41 -5.97 -16.34 -7.08 c -6.27 -1.55 -14.75 -2.3 -22.18 -2.06 c -3.2 -0.18 -9.12 -0.96 -14.32 -0.59 l -8 -1.73 h -0.24 h -0.14 c 2.53 0 0.65 2.32 1.17 2.32 l -0.39 2.27 l -0.76 0.22 l -1.54 0.29 l -3.07 0.5 c -8.05 1.62 -15.27 3.87 -21.1 7.39 c -11.65 6.36 -19.53 17.97 -23.82 33.38 c -4.23 15.2 -4.37 32.2 -2.03 46.12 c 2.28 14.13 7.24 25.19 13.17 31.55 c 3.12 2.98 5.75 5.2 8.3 6.25 c 2.57 1.07 3.92 1.64 3.92 1.64 c 0 0 -1.39 0.48 -3.99 1.37 c -2.56 0.62 -7.43 1.24 -12.95 -0.08 c -11.39 -2.28 -25.88 -12.68 -36.22 -29.14 c -10.29 -16.39 -17.61 -38.7 -15.85 -64.47 c 0.92 -12.78 4.32 -26.6 11.59 -39.54 c 6.97 -13.07 18.62 -24.51 31.72 -32.18 c 13.28 -7.54 27.58 -11.41 40.98 -12.51 l 5.02 -0.3 l 6.1 -0.3 l 8.04 0.52 c 5.43 0.44 10.01 0.37 17.06 1.83 c 13 2.06 24.51 5.42 35.41 11.81 c 10.82 5.64 20.01 15.46 25.14 25.33 c 5.54 10.08 5.8 20.29 5.54 28.19 c -0.61 8.01 -2.65 14.4 -4.78 19.27 M 1506.98 2944.31 h 0.35 z m 571.37 -584.89 c -0.41 -2.1 -0.72 -4.18 -1.18 -6.28 c -2.95 -13.58 -6.73 -27.39 -11.75 -40.88 c -5.04 -13.44 -11.14 -26.73 -19.29 -38.25 c -7.99 -11.67 -18.05 -21.45 -29.86 -27.57 c -6.71 -3.96 -13.4 -7.89 -19.98 -11.76 c -3.19 -1.94 -6.43 -3.62 -9.52 -5.79 c -3.05 -2.3 -6.08 -4.57 -9.08 -6.85 c -5.96 -4.5 -11.82 -8.96 -17.53 -13.29 c -5.25 -4.71 -10.39 -9.33 -15.37 -13.81 c -10.2 -8.73 -18.73 -18.08 -26.94 -26.29 c -8.24 -8.23 -15 -16.49 -21.39 -23.42 c -6.2 -7.1 -11.33 -13.53 -15.68 -18.69 c -8.44 -10.58 -13.02 -16.77 -13.02 -16.77 c 0 0 5.14 5.77 14.47 15.51 c 4.79 4.71 10.45 10.64 17.23 17.11 c 6.97 6.29 14.35 13.83 23.21 21.21 c 8.85 7.36 18.04 15.76 28.77 23.36 c 5.24 3.91 10.62 7.94 16.13 12.05 c 5.69 3.58 11.52 7.21 17.45 10.92 c 2.94 1.84 5.9 3.72 8.89 5.58 c 3.09 1.77 6.58 3.21 9.9 4.85 c 6.54 3.11 13.16 6.25 19.83 9.43 c 15.94 6.42 29.6 17.7 40.22 30.53 c 10.87 12.79 19.02 27.13 25.99 41.52 c 6.91 14.42 12.38 29.07 16.89 43.41 c 2.4 7.63 4.47 15.12 6.37 22.54 c 26.95 8.08 43.79 18.21 43.79 30.67 c 0 4.63 -2.43 8.92 -6.71 12.92 c -5.6 60.68 -32.99 321.65 -101.95 453.29 c -82.81 -1.73 -118.49 -15.67 -118.49 -15.67 c 40.03 -164.68 48.33 -277.43 54.98 -399.17 c -51.11 4.46 -105.8 6.45 -152.41 6.45 c -57.74 0 -127.93 -3.05 -188.26 -10.08 c 3.68 118.15 15.12 352.34 48.35 392.5 c -85.8 39.17 -152.01 48.49 -152.01 48.49 c -27.94 -71.4 -95.18 -329.87 -69.76 -448.08 c 0.11 -1.32 0.27 -3.01 0.53 -5 c 0.54 -4.62 1.48 -11.22 3.12 -19.41 c 3.28 -16.4 9.29 -39.41 20.87 -65.29 c 11.51 -25.84 28.94 -54.52 53.48 -79.93 c 24.35 -25.53 55.8 -46.93 89.63 -61.4 c 8.56 -3.37 17.05 -6.87 25.77 -9.51 c 8.37 -2.74 16.71 -5.44 24.98 -8.11 c 15.77 -5.45 31.29 -12.23 45.35 -19.98 c 28.2 -15.44 51.05 -36.36 63.59 -59.02 c 12.95 -22.54 15.71 -45.06 15.32 -60.28 c -0.46 -15.41 -3.35 -23.93 -3.35 -23.93 c 0 0 3.57 8.24 5.29 23.81 c 1.62 15.37 0.8 38.76 -10.93 63.65 c -11.28 25.01 -33.9 49.38 -62.42 68.08 c -14.32 9.44 -29.72 17.75 -46.38 25.04 c -8.05 3.35 -16.17 6.71 -24.34 10.1 c -7.94 3.11 -15.55 6.97 -23.2 10.7 c -30.13 15.8 -56.65 37.22 -76.33 61.35 c -19.86 24.09 -33.06 50.31 -41.36 73.61 c -1.69 4.76 -3.07 9.31 -4.4 13.81 c 0.6 -0.19 1.15 -0.37 1.75 -0.54 c 52.7 -26.19 199.4 -36.22 304.71 -36.22 c 77.58 0 177.66 5.44 246.03 18.78 M 1798.93 1313.27 c -0.71 0.11 -1.38 0.2 -2.07 0.31 c -15.61 33.23 -23.61 77.99 7.02 107.4 c 0 0 -194.62 -96.18 -184.83 -98.99 c 18.3 -14.24 143.65 -28.61 177.47 -23.88 c 0.37 -0.05 0.71 -0.07 1.08 -0.09 c 16.44 -0.24 33.93 -1.34 51.44 -0.92 c 8.74 0.15 17.48 0.3 26.08 0.46 c 8.59 -0.05 17.05 0.59 25.23 1.15 c 16.32 1.34 31.58 1.56 44.54 3.53 c 25.93 3.25 43.19 5.42 43.19 5.42 c 0 0 -17.37 -0.77 -43.42 -1.93 c -12.97 -0.91 -28.21 0.09 -44.42 0.07 c -8.14 0.08 -16.52 0.15 -25.02 0.85 c -8.52 0.55 -17.15 1.1 -25.79 1.64 c -17.24 0.96 -34.43 3.45 -50.5 4.98 m 44.91 666.41 c -18.65 -61.58 0.07 -499.02 0.07 -521.41 c 0 -20.04 157.13 -105.04 227.52 -119.16 c 19.71 -3.95 15.1 -11.84 11.17 -16.15 c -36.29 -39.59 -138.4 -47.94 -233.02 -51.72 c -87.41 -3.5 -250.2 11.39 -295.14 43.96 c -8.99 6.53 -8.46 15.11 -2.73 16.04 c 67.03 10.93 239.58 105.96 239.58 126.57 c 0 22.39 18.71 460.32 0.05 521.89 c -55.83 184.27 -153.02 103.73 -309.71 312.06 c -122.65 163.06 -27.98 451.08 22.38 652.55 h 2.97 c -0.1 0 -0.17 0.2 -0.17 -0.11 c 0 -31.54 279.65 -30.86 311.23 -30.86 c 31.61 0 311.25 -0.31 311.25 31.23 v -0.26 h 1.88 c 50.36 -201.47 145.04 -489.49 22.38 -652.55 c -156.69 -208.33 -253.87 -127.82 -309.71 -312.08 m 280.41 964.63 h -0.51 h 0.51" stroke-linecap="round"/>
</g>
</svg>